<svg width="960" height="640" viewBox="0 0 960 640" xmlns="http://www.w3.org/2000/svg" role="img" aria-labelledby="title desc">
  <title id="title">Growth Mindset Illustration</title>
  <desc id="desc">Abstract design showing growth, learning, and progress.</desc>
  <defs>
    <linearGradient id="bg2" x1="0" y1="0" x2="1" y2="1">
      <stop offset="0%" stop-color="#fff7ea"/>
      <stop offset="100%" stop-color="#ffe9cf"/>
    </linearGradient>
    <linearGradient id="leaf" x1="0" y1="0" x2="0" y2="1">
      <stop offset="0%" stop-color="#22a67b"/>
      <stop offset="100%" stop-color="#0f6c73"/>
    </linearGradient>
    <linearGradient id="pot" x1="0" y1="0" x2="1" y2="1">
      <stop offset="0%" stop-color="#e06a45"/>
      <stop offset="100%" stop-color="#c3472d"/>
    </linearGradient>
  </defs>

  <rect width="960" height="640" rx="36" fill="url(#bg2)"/>
  <circle cx="210" cy="120" r="68" fill="#ffe0bc"/>
  <circle cx="790" cy="520" r="80" fill="#ffddb9"/>

  <rect x="220" y="120" width="520" height="380" rx="26" fill="#fff" stroke="#efd9bc" stroke-width="3"/>

  <rect x="300" y="360" width="360" height="94" rx="18" fill="url(#pot)"/>
  <rect x="330" y="338" width="300" height="28" rx="12" fill="#ab3b24"/>

  <rect x="468" y="214" width="24" height="130" rx="12" fill="#2c8f75"/>
  <ellipse cx="430" cy="250" rx="56" ry="30" transform="rotate(-24 430 250)" fill="url(#leaf)"/>
  <ellipse cx="532" cy="250" rx="56" ry="30" transform="rotate(24 532 250)" fill="url(#leaf)"/>
  <ellipse cx="408" cy="300" rx="44" ry="24" transform="rotate(-30 408 300)" fill="#1a8c70"/>
  <ellipse cx="552" cy="300" rx="44" ry="24" transform="rotate(30 552 300)" fill="#1a8c70"/>

  <rect x="250" y="170" width="150" height="18" rx="9" fill="#f2e2ce"/>
  <rect x="250" y="198" width="120" height="14" rx="7" fill="#f5eadc"/>
  <rect x="560" y="170" width="150" height="18" rx="9" fill="#f2e2ce"/>
  <rect x="560" y="198" width="120" height="14" rx="7" fill="#f5eadc"/>

  <circle cx="320" cy="280" r="30" fill="#fff4e7" stroke="#e9cfb0"/>
  <path d="M308 280 L318 290 L334 270" fill="none" stroke="#d84f31" stroke-width="6" stroke-linecap="round" stroke-linejoin="round"/>

  <circle cx="640" cy="280" r="30" fill="#fff4e7" stroke="#e9cfb0"/>
  <path d="M628 280 L638 290 L654 270" fill="none" stroke="#d84f31" stroke-width="6" stroke-linecap="round" stroke-linejoin="round"/>
</svg>
